#!OML:ASF H:\ManfredETheater\Project 1\Capture day 1\Session 1\subject.ASF
:FULLY-SPECIFIED
:DEGREES
183
root 1.04258 17.8455 -15.9483 -173.384 -5.27342 178.148
lowerback 1.10491 -1.14823 -1.27476
upperback -4.20423 -1.66699 2.25318
thorax -4.86126 -0.805392 3.1426
lowerneck -16.8675 -1.65231 -2.6419
upperneck 18.1595 -1.7872 -0.229925
head 8.46073 -1.15199 0.126312
rclavicle -9.91439e-015 -1.66979e-014
rhumerus -38.7851 -11.1145 -78.1678
rradius 30.4944
rwrist 5.3785
rhand -19.7984 -8.34231
rfingers 7.12502
rthumb 6.53447 -38.2215
lclavicle -9.91439e-015 -1.66979e-014
lhumerus -39.6649 2.35412 88.7561
lradius 45.7497
lwrist -6.05699
lhand -13.6133 6.0293
lfingers 7.12502
lthumb 12.5019 35.6353
rfemur -13.6187 1.50583 23.214
rtibia 32.7945
rfoot -19.3001 -13.9572
rtoes -5.71319
lfemur -18.6309 -7.59201 -21.0778
ltibia 39.467
lfoot -22.3125 -1.77898
ltoes 9.16661
184
root 1.0395 17.8425 -15.9616 -173.331 -5.15933 178.154
lowerback 1.1042 -1.16279 -1.29173
upperback -4.21021 -1.68756 2.25333
thorax -4.86542 -0.815054 3.15347
lowerneck -16.8875 -1.63156 -2.60507
upperneck 18.1523 -1.76487 -0.237481
head 8.4611 -1.13922 0.120366
rclavicle -1.2424e-016 9.54166e-015
rhumerus -38.6621 -11.0713 -78.1608
rradius 30.6605
rwrist 5.18424
rhand -19.8307 -8.4332
rfingers 7.12502
rthumb 6.50325 -38.3134
lclavicle -1.2424e-016 9.54166e-015
lhumerus -39.6558 2.29226 88.8335
lradius 45.4697
lwrist -6.2681
lhand -13.3044 6.02062
lfingers 7.12502
lthumb 12.7998 35.6082
rfemur -13.634 1.529 23.2019
rtibia 32.8008
rfoot -19.4105 -13.876
rtoes -5.56037
lfemur -18.6121 -7.53925 -21.0894
ltibia 39.4528
lfoot -22.3821 -1.7105
ltoes 9.18757
185
root 1.03636 17.8395 -15.9743 -173.276 -5.04806 178.161
lowerback 1.10209 -1.1764 -1.30706
upperback -4.21691 -1.70687 2.25334
thorax -4.86964 -0.824182 3.16319
lowerneck -16.9076 -1.61271 -2.57053
upperneck 18.14 -1.74442 -0.244362
head 8.4598 -1.12726 0.11484
rclavicle 8.19987e-015 1.43125e-014
rhumerus -38.5337 -11.0199 -78.1608
rradius 30.8204
rwrist 4.99126
rhand -19.8794 -8.52385
rfingers 7.12502
rthumb 6.45624 -38.4054
lclavicle 8.19987e-015 1.43125e-014
lhumerus -39.6463 2.25786 88.8973
lradius 45.178
lwrist -6.4783
lhand -13.024 5.9926
lfingers 7.12502
lthumb 13.07 35.5631
rfemur -13.6548 1.54959 23.19
rtibia 32.8077
rfoot -19.5162 -13.7943
rtoes -5.43048
lfemur -18.5984 -7.49081 -21.0987
ltibia 39.4377
lfoot -22.4536 -1.64535
ltoes 9.22008
186
root 1.03316 17.8366 -15.9866 -173.218 -4.94083 178.169
lowerback 1.09913 -1.18938 -1.32037
upperback -4.22573 -1.72543 2.25275
thorax -4.87571 -0.83305 3.17115
lowerneck -16.9254 -1.59537 -2.53796
upperneck 18.1236 -1.72617 -0.247704
head 8.45685 -1.11599 0.110613
rclavicle 9.93923e-016 3.02153e-014
rhumerus -38.4043 -10.9598 -78.168
rradius 30.9746
rwrist 4.8017
rhand -19.9353 -8.62151
rfingers 7.12502
rthumb 6.40226 -38.5047
lclavicle 9.93923e-016 3.02153e-014
lhumerus -39.6366 2.24768 88.9474
lradius 44.8728
lwrist -6.68576
lhand -12.7814 5.94196
lfingers 7.12502
lthumb 13.3039 35.4973
rfemur -13.6804 1.5671 23.1786
rtibia 32.8147
rfoot -19.615 -13.7123
rtoes -5.32276
lfemur -18.5907 -7.44846 -21.1052
ltibia 39.4225
lfoot -22.5277 -1.5829
ltoes 9.26111
187
root 1.02976 17.8337 -15.9985 -173.157 -4.83948 178.176
lowerback 1.09327 -1.20307 -1.33322
upperback -4.23465 -1.74496 2.25149
thorax -4.88019 -0.842463 3.17811
lowerneck -16.9471 -1.58048 -2.5087
upperneck 18.1055 -1.71037 -0.249668
head 8.45403 -1.10584 0.107088
rclavicle -4.13721e-015 2.78299e-014
rhumerus -38.2714 -10.89 -78.183
rradius 31.1263
rwrist 4.61664
rhand -19.9923 -8.73958
rfingers 7.12502
rthumb 6.34728 -38.6245
lclavicle -4.13721e-015 2.78299e-014
lhumerus -39.6251 2.26329 88.9854
lradius 44.5571
lwrist -6.88668
lhand -12.5806 5.86637
lfingers 7.12502
lthumb 13.4974 35.409
rfemur -13.7097 1.57385 23.164
rtibia 32.8209
rfoot -19.7056 -13.6248
rtoes -5.24851
lfemur -18.5884 -7.41149 -21.1127
ltibia 39.408
lfoot -22.6053 -1.5235
ltoes 9.31415
188
root 1.02624 17.8309 -16.0099 -173.094 -4.74251 178.186
lowerback 1.08395 -1.21486 -1.34104
upperback -4.24469 -1.76191 2.24994
thorax -4.88417 -0.850869 3.18173
lowerneck -16.9626 -1.57021 -2.48471
upperneck 18.0805 -1.70033 -0.248188
head 8.44796 -1.09827 0.104987
rclavicle 1.18028e-015 -7.15625e-015
rhumerus -38.141 -10.8175 -78.2005
rradius 31.2754
rwrist 4.44464
rhand -20.0489 -8.86337
rfingers 7.12502
rthumb 6.29264 -38.7499
lclavicle 1.18028e-015 -7.15625e-015
lhumerus -39.6159 2.29967 89.0133
lradius 44.2304
lwrist -7.08103
lhand -12.4267 5.76455
lfingers 7.12502
lthumb 13.6458 35.2973
rfemur -13.742 1.57454 23.1516
rtibia 32.8257
rfoot -19.7874 -13.5355
rtoes -5.20563
lfemur -18.5914 -7.37886 -21.1165
ltibia 39.3946
lfoot -22.6833 -1.46484
ltoes 9.36807
189
root 1.02266 17.828 -16.0209 -173.031 -4.64769 178.199
lowerback 1.07471 -1.22514 -1.34563
upperback -4.25374 -1.77669 2.24883
thorax -4.88737 -0.858314 3.18386
lowerneck -16.9799 -1.56205 -2.46207
upperneck 18.0504 -1.69271 -0.245168
head 8.44054 -1.09159 0.103365
rclavicle 2.62272e-014 -2.3059e-014
rhumerus -38.0103 -10.741 -78.2225
rradius 31.4242
rwrist 4.28677
rhand -20.1065 -8.98268
rfingers 7.12502
rthumb 6.23699 -38.8709
lclavicle 2.62272e-014 -2.3059e-014
lhumerus -39.603 2.35796 89.0302
lradius 43.8921
lwrist -7.26443
lhand -12.2992 5.66845
lfingers 7.12502
lthumb 13.7686 35.1929
rfemur -13.7749 1.57382 23.1421
rtibia 32.8286
rfoot -19.8378 -13.451
rtoes -5.28114
lfemur -18.598 -7.34925 -21.1167
ltibia 39.383
lfoot -22.7615 -1.40394
ltoes 9.42796
190
root 1.01899 17.8253 -16.0315 -172.967 -4.55629 178.211
lowerback 1.06539 -1.23373 -1.35145
upperback -4.26407 -1.78932 2.24688
thorax -4.89198 -0.864656 3.18573
lowerneck -16.9856 -1.55676 -2.44424
upperneck 18.0104 -1.6888 -0.23842
head 8.42787 -1.08646 0.103493
rclavicle 1.75179e-015 3.57812e-014
rhumerus -37.8859 -10.6608 -78.2464
rradius 31.5756
rwrist 4.14175
rhand -20.1676 -9.09591
rfingers 7.12502
rthumb 6.17805 -38.9858
lclavicle 1.75179e-015 3.57812e-014
lhumerus -39.5913 2.43627 89.0381
lradius 43.5428
lwrist -7.43858
lhand -12.1889 5.58778
lfingers 7.12502
lthumb 13.875 35.1049
rfemur -13.8086 1.56765 23.1296
rtibia 32.8292
rfoot -19.8762 -13.3652
rtoes -5.40447
lfemur -18.6079 -7.3219 -21.1193
ltibia 39.3731
lfoot -22.8396 -1.34154
ltoes 9.49566
